<mxfile host="app.diagrams.net" modified="2023-10-20T19:42:38.464Z" agent="Mozilla/5.0 (Windows NT 10.0; Win64; x64) AppleWebKit/537.36 (KHTML, like Gecko) Chrome/118.0.0.0 Safari/537.36" version="22.0.6" etag="_cYerBS019f86qe2Gd2e" type="github">
  <diagram name="Страница — 1" id="3g3n-9JdmsCS0577pWMh">
    <mxGraphModel>
      <root>
        <mxCell id="0" />
        <mxCell id="1" parent="0" />
      </root>
    </mxGraphModel>
  </diagram>
</mxfile>
